<svg width="12" height="12" viewBox="0 0 12 12" fill="none" xmlns="http://www.w3.org/2000/svg">
<path d="M12 8.94667V11.3041C12 11.6541 11.7294 11.9445 11.3803 11.9691C11.0887 11.9897 10.8509 12 10.6667 12C4.7756 12 0 7.2244 0 1.33333C0 1.14914 0.0103 0.911247 0.0309 0.619667C0.05558 0.270587 0.34596 0 0.695907 0H3.0534C3.22452 0 3.36784 0.129613 3.38502 0.299867C3.40045 0.452713 3.41479 0.575427 3.42805 0.668013C3.5629 1.60981 3.83835 2.50624 4.23247 3.33535C4.29573 3.46843 4.25447 3.62773 4.13457 3.71337L2.6957 4.7412C3.57168 6.7874 5.2126 8.42833 7.2588 9.30433L8.28473 7.86793C8.37147 7.7466 8.53267 7.70487 8.66733 7.7688C9.4964 8.1626 10.3927 8.43773 11.3344 8.57227C11.4264 8.58547 11.5483 8.59967 11.7001 8.615C11.8704 8.6322 12 8.77553 12 8.94667Z" fill="#20324C"/>
</svg>
