<svg width="14" height="14" viewBox="0 0 14 14" fill="none" xmlns="http://www.w3.org/2000/svg">
<path d="M3.66658 10.3335H10.3333V13.6668H3.66658V10.3335ZM11.6666 12.3335V9.00016H2.33325V12.3335H0.999919C0.631732 12.3335 0.333252 12.035 0.333252 11.6668V5.00016C0.333252 4.63198 0.631732 4.3335 0.999919 4.3335H12.9999C13.3681 4.3335 13.6666 4.63198 13.6666 5.00016V11.6668C13.6666 12.035 13.3681 12.3335 12.9999 12.3335H11.6666ZM2.33325 5.66683V7.00016H4.33325V5.66683H2.33325ZM3.66658 0.333496H10.3333C10.7015 0.333496 10.9999 0.631976 10.9999 1.00016V3.00016H2.99992V1.00016C2.99992 0.631976 3.2984 0.333496 3.66658 0.333496Z" fill="#20324C"/>
</svg>
