<svg width="14" height="14" viewBox="0 0 14 14" fill="none" xmlns="http://www.w3.org/2000/svg">
<path d="M11.0208 10.0779L13.876 12.933L12.9332 13.8758L10.078 11.0207C9.05143 11.842 7.7495 12.3333 6.3335 12.3333C3.0215 12.3333 0.333496 9.64533 0.333496 6.33333C0.333496 3.02133 3.0215 0.333328 6.3335 0.333328C9.6455 0.333328 12.3335 3.02133 12.3335 6.33333C12.3335 7.74933 11.8422 9.05126 11.0208 10.0779ZM9.6833 9.58319C10.4985 8.74306 11.0002 7.59706 11.0002 6.33333C11.0002 3.75499 8.91183 1.66666 6.3335 1.66666C3.75516 1.66666 1.66683 3.75499 1.66683 6.33333C1.66683 8.91166 3.75516 11 6.3335 11C7.59723 11 8.74323 10.4983 9.58336 9.68313L9.6833 9.58319Z" fill="#FF0A14"/>
</svg>
